<svg height="512pt" viewBox="0 0 512.00012 512" width="512pt" xmlns="http://www.w3.org/2000/svg"><path d="m175.175781 110.550781-135.363281 361.636719 361.640625-135.363281zm0 0" fill="#ffe046"/><path d="m386.300781 321.671875-337.421875 126.296875-9.066406 24.21875 361.640625-135.363281zm0 0" fill="#ffd508"/><g fill="#ff72c3"><path d="m243.867188 298.4375c0 16.738281-13.570313 30.304688-30.304688 30.304688-16.738281 0-30.304688-13.566407-30.304688-30.304688 0-16.734375 13.566407-30.304688 30.304688-30.304688 16.734375 0 30.304688 13.570313 30.304688 30.304688zm0 0"/><path d="m149.921875 270.152344c0 16.738281-13.566406 30.304687-30.304687 30.304687-5.132813 0-9.972657-1.269531-14.203126-3.535156l21.0625-56.273437c13.433594 3.089843 23.445313 15.132812 23.445313 29.503906zm0 0"/><path d="m238.816406 394.402344c0 1.132812-.0625 2.265625-.183594 3.367187l-50.617187 18.949219c-6.03125-5.535156-9.808594-13.484375-9.808594-22.3125 0-16.738281 13.5625-30.304688 30.304688-30.304688 16.738281 0 30.304687 13.5625 30.304687 30.300782zm0 0"/></g><path d="m238.816406 394.402344c0-5.8125-1.640625-11.238282-4.476562-15.851563l-55.71875 20.855469c1.128906 6.804688 4.523437 12.84375 9.390625 17.308594l50.621093-18.945313c.121094-1.101562.183594-2.234375.183594-3.367187zm0 0" fill="#ff50b5"/><path d="m105.472656 399.453125c0 16.738281-13.566406 30.308594-30.304687 30.308594-6.484375 0-12.484375-2.042969-17.414063-5.519531l20.566406-54.929688c15.253907 1.574219 27.152344 14.464844 27.152344 30.140625zm0 0" fill="#ff72c3"/><path d="m161.96875 145.828125 204.199219 204.203125 35.285156-13.207031-226.277344-226.273438zm0 0" fill="#def4f8"/><path d="m366.167969 350.03125 35.285156-13.207031-15.152344-15.152344-35.285156 13.207031zm0 0" fill="#bce8f1"/><path d="m359.164062 131.992188 7 14.183593c.585938 1.195313 1.722657 2.019531 3.039063 2.210938l15.652344 2.273437c3.3125.484375 4.636719 4.554688 2.238281 6.894532l-11.324219 11.039062c-.953125.925781-1.386719 2.265625-1.164062 3.578125l2.675781 15.585937c.566406 3.300782-2.898438 5.816407-5.863281 4.261719l-14-7.363281c-1.175781-.617188-2.582031-.617188-3.757813 0l-14 7.363281c-2.964844 1.554688-6.429687-.960937-5.863281-4.261719l2.671875-15.585937c.226562-1.3125-.207031-2.648437-1.160156-3.578125l-11.324219-11.039062c-2.398437-2.339844-1.074219-6.414063 2.238281-6.894532l15.652344-2.273437c1.3125-.191407 2.453125-1.019531 3.039062-2.210938l7-14.183593c1.484376-3 5.765626-3 7.25 0zm0 0" fill="#72d1fb"/><path d="m242.710938 30.746094 14.289062 28.570312-28.574219 28.574219-14.285156-28.574219zm0 0" fill="#97d57e"/><path d="m492.269531 271.953125-9.484375 30.503906-40.398437.820313 9.484375-30.503906zm0 0" fill="#f76c57"/><path d="m491.355469 115.597656c0 8.371094-6.785157 15.152344-15.152344 15.152344s-15.152344-6.78125-15.152344-15.152344c0-8.367187 6.785157-15.152344 15.152344-15.152344s15.152344 6.785157 15.152344 15.152344zm0 0" fill="#d2a8d1"/><path d="m400.445312 60.03125c0 8.367188-6.78125 15.152344-15.152343 15.152344-8.367188 0-15.152344-6.785156-15.152344-15.152344s6.785156-15.152344 15.152344-15.152344c8.371093 0 15.152343 6.785156 15.152343 15.152344zm0 0" fill="#ffe046"/><path d="m213.558594 336.246094c20.847656 0 37.808594-16.957032 37.808594-37.804688s-16.960938-37.804687-37.808594-37.804687c-20.84375 0-37.804688 16.957031-37.804688 37.804687 0 20.84375 16.957032 37.804688 37.804688 37.804688zm0-60.609375c12.574218 0 22.808594 10.226562 22.808594 22.804687 0 12.574219-10.234376 22.804688-22.808594 22.804688-12.574219 0-22.804688-10.230469-22.804688-22.804688 0-12.574218 10.230469-22.804687 22.804688-22.804687zm0 0"/><path d="m180.472656 105.238281c-1.800781-1.804687-4.398437-2.566406-6.890625-2.023437-2.496093.539062-4.542969 2.308594-5.4375 4.699218l-25.21875 67.375c-1.453125 3.882813.515625 8.203126 4.394531 9.65625 3.878907 1.453126 8.203126-.515624 9.65625-4.394531l7.925782-21.179687 117.140625 117.144531c1.464843 1.460937 3.386719 2.195313 5.304687 2.195313 1.917969 0 3.839844-.730469 5.304688-2.195313 2.929687-2.929687 2.929687-7.679687 0-10.609375l-121.972656-121.972656 7.429687-19.84375 209.804687 209.800781-19.847656 7.429687-50.671875-50.671874c-2.929687-2.929688-7.675781-2.929688-10.605469 0-2.929687 2.929687-2.929687 7.679687 0 10.609374l45.839844 45.839844-21.175781 7.925782c-3.882813 1.453124-5.847656 5.777343-4.398437 9.65625 1.433593 3.828124 5.824218 5.828124 9.65625 4.394531l67.375-25.21875c2.390624-.894531 4.160156-2.941407 4.703124-5.433594.539063-2.496094-.222656-5.09375-2.027343-6.894531zm0 0"/><path d="m298.507812 367.355469-52.898437 19.800781c-3.394531-17.386719-18.734375-30.550781-37.101563-30.550781-20.847656 0-37.804687 16.957031-37.804687 37.804687 0 6.679688 1.789063 13.191406 5.070313 18.882813l-123.171876 46.105469 9.203126-24.585938c4.234374 1.605469 8.738281 2.457031 13.355468 2.457031 20.847656 0 37.804688-16.960937 37.804688-37.808593 0-16.195313-10.113282-30.113282-24.65625-35.464844l21.46875-57.347656c3.191406.855468 6.5 1.3125 9.832031 1.3125 20.847656 0 37.804687-16.960938 37.804687-37.804688 0-14.8125-8.417968-27.820312-21.25-34.003906l8.480469-22.660156c1.453125-3.878907-.515625-8.203126-4.394531-9.652344-3.878906-1.449219-8.203125.515625-9.65625 4.394531l-97.246094 259.808594-31.175781 31.175781c-2.730469 2.730469-2.914063 7.242188-.398437 10.179688 2.808593 3.273437 7.953124 3.480468 11.007812.429687l31.175781-31.179687 197.507813-73.925782s.003906 0 .003906-.003906l62.296875-23.316406c3.878906-1.453125 5.847656-5.773438 4.398437-9.652344-1.453124-3.878906-5.777343-5.847656-9.65625-4.394531zm-200.542968 32.105469c0 12.574218-10.230469 22.808593-22.804688 22.808593-2.804687 0-5.535156-.519531-8.101562-1.5l15.988281-42.703125c8.792969 3.210938 14.917969 11.605469 14.917969 21.394532zm44.449218-129.304688c0 12.574219-10.230468 22.804688-22.804687 22.804688-1.53125 0-3.050781-.160157-4.539063-.460938l15.789063-42.179688c7.019531 3.941407 11.554687 11.394532 11.554687 19.835938zm43.289063 124.253906c0-12.574218 10.230469-22.804687 22.804687-22.804687 11.945313 0 21.765626 9.230469 22.722657 20.929687l-41.085938 15.378906c-2.855469-3.886718-4.441406-8.621093-4.441406-13.503906zm0 0"/><path d="m511.964844 6.785156c-.394532-4.125-4.054688-7.144531-8.179688-6.7499998-8.378906.8046878-15.039062 7.4648438-15.84375 15.8437498l-1.441406 15.007813c-.117188 1.238281-1.101562 2.222656-2.339844 2.34375l-15.007812 1.4375c-8.375.800781-15.039063 7.464843-15.84375 15.84375l-1.4375 15c-.117188 1.238281-1.101563 2.222656-2.34375 2.34375l-14.992188 1.433593c-8.378906.800782-15.042968 7.464844-15.847656 15.84375l-1.433594 15c-.121094 1.238282-1.105468 2.222657-2.34375 2.339844l-14.996094 1.4375c-4.125.394532-7.148437 4.054688-6.753906 8.179688.390625 4.070312 4.113282 7.144531 8.183594 6.753906l14.996094-1.4375c8.378906-.800781 15.042968-7.464844 15.84375-15.84375l1.4375-15c.117187-1.238281 1.105468-2.222656 2.34375-2.339844l14.992187-1.433594c8.378907-.800781 15.042969-7.464843 15.847657-15.84375l1.4375-15.003906c.117187-1.238281 1.101562-2.222656 2.339843-2.339844l15.007813-1.4375c8.375-.804687 15.039062-7.464843 15.84375-15.84375l1.4375-15.007812c.121094-1.238281 1.105468-2.222656 2.34375-2.34375 4.125-.398438 7.144531-4.0625 6.75-8.183594zm0 0"/><path d="m259.050781 108.96875-1.433593 15c-.121094 1.238281-1.105469 2.222656-2.34375 2.34375-4.125.394531-7.148438 4.054688-6.753907 8.179688.390625 4.070312 4.117188 7.144531 8.183594 6.75 8.378906-.800782 15.042969-7.464844 15.84375-15.84375l1.4375-15c.117187-1.238282 1.101563-2.222657 2.34375-2.339844l14.992187-1.4375c8.378907-.800782 15.046876-7.464844 15.847657-15.84375l1.4375-15c.117187-1.238282 1.101562-2.222656 2.339843-2.34375l15.007813-1.4375c8.375-.800782 15.039063-7.464844 15.84375-15.84375l1.4375-15.007813c.117187-1.238281 1.105469-2.222656 2.339844-2.339843 4.125-.394532 7.148437-4.058594 6.753906-8.183594-.398437-4.121094-4.054687-7.148438-8.183594-6.75-8.375.800781-15.039062 7.464844-15.84375 15.84375l-1.4375 15.007812c-.121093 1.238282-1.105469 2.222656-2.34375 2.339844l-15.007812 1.4375c-8.375.804688-15.039063 7.46875-15.839844 15.847656l-1.441406 15c-.117188 1.238282-1.101563 2.222656-2.339844 2.34375l-14.996094 1.433594c-8.375.800781-15.039062 7.464844-15.84375 15.84375zm0 0"/><path d="m440.957031 208.125c.117188-1.234375 1.101563-2.21875 2.339844-2.339844l15.003906-1.4375c8.378907-.800781 15.042969-7.464844 15.84375-15.84375l1.441407-15.007812c.121093-1.238282 1.105468-2.222656 2.339843-2.339844 4.125-.398438 7.148438-4.058594 6.75-8.183594-.394531-4.121094-4.050781-7.152344-8.179687-6.75-8.375.804688-15.039063 7.464844-15.84375 15.84375l-1.4375 15.007813c-.121094 1.238281-1.105469 2.222656-2.34375 2.339843l-15.003906 1.441407c-8.378907.800781-15.042969 7.464843-15.84375 15.84375l-1.4375 15.003906c-.121094 1.238281-1.105469 2.222656-2.34375 2.339844l-14.996094 1.433593c-8.378906.800782-15.042969 7.464844-15.84375 15.84375l-1.4375 15c-.117188 1.238282-1.105469 2.226563-2.339844 2.34375-4.125.394532-7.148438 4.054688-6.753906 8.179688.390625 4.066406 4.113281 7.144531 8.179687 6.753906 8.378907-.800781 15.042969-7.464844 15.84375-15.847656l1.4375-15c.121094-1.234375 1.105469-2.222656 2.34375-2.339844l14.996094-1.433594c8.378906-.800781 15.042969-7.464843 15.84375-15.84375zm0 0"/><path d="m345.191406 128.667969-6.191406 12.554687-13.851562 2.011719c-4.378907.636719-7.949219 3.644531-9.316407 7.851563-1.371093 4.210937-.25 8.742187 2.917969 11.832031l10.023438 9.769531-2.363282 13.796875c-.578125 3.363281.34375 6.78125 2.53125 9.375 2.210938 2.625 5.433594 4.128906 8.839844 4.128906 1.855469 0 3.710938-.460937 5.371094-1.335937l12.390625-6.515625 12.390625 6.515625c1.660156.871094 3.519531 1.332031 5.371094 1.332031 3.40625 0 6.625-1.503906 8.835937-4.125 2.1875-2.59375 3.113281-6.011719 2.535156-9.375l-2.367187-13.796875 10.027344-9.769531c3.167968-3.089844 4.285156-7.621094 2.917968-11.832031-1.367187-4.207032-4.9375-7.21875-9.316406-7.851563l-13.851562-2.015625-6.195313-12.550781c-1.960937-3.96875-5.925781-6.433594-10.347656-6.433594-4.425781 0-8.390625 2.464844-10.351563 6.433594zm6.453125 20.824219 3.898438-7.898438 3.894531 7.894531c1.683594 3.410157 4.929688 5.769531 8.695312 6.316407l8.714844 1.265624-6.308594 6.148438c-2.71875 2.652344-3.960937 6.46875-3.320312 10.214844l1.488281 8.679687-7.792969-4.097656c-1.648437-.867187-3.507812-1.324219-5.371093-1.324219s-3.71875.457032-5.371094 1.324219l-7.792969 4.097656 1.488282-8.679687c.640624-3.746094-.601563-7.5625-3.320313-10.214844l-6.304687-6.148438 8.714843-1.265624c3.757813-.546876 7.007813-2.90625 8.6875-6.3125zm0 0"/><path d="m221.714844 91.234375c2.253906 4.503906 8.441406 5.519531 12.011718 1.949219l28.574219-28.574219c2.28125-2.28125 2.847657-5.769531 1.40625-8.65625l-14.285156-28.570313c-1.078125-2.15625-3.128906-3.664062-5.507813-4.050781-2.378906-.386719-4.800781.394531-6.503906 2.097657l-28.574218 28.574218c-2.285157 2.285156-2.851563 5.769532-1.40625 8.660156zm18.941406-47.835937 7.214844 14.429687-17.390625 17.390625-7.214844-14.429688zm0 0"/><path d="m492.125 264.453125-40.398438.820313c-3.226562.066406-6.050781 2.191406-7.011718 5.273437l-9.484375 30.503906c-.714844 2.300781-.277344 4.808594 1.167969 6.734375 1.441406 1.914063 3.757812 3.035156 6.148437 2.992188l40.398437-.824219c3.230469-.0625 6.054688-2.1875 7.011719-5.269531l9.484375-30.503906c.714844-2.304688.28125-4.808594-1.167968-6.738282-1.449219-1.925781-3.734376-3.050781-6.148438-2.988281zm-14.886719 30.617187-24.59375.5 4.789063-15.40625 24.59375-.5zm0 0"/><path d="m476.214844 138.246094c12.492187 0 22.652344-10.164063 22.652344-22.652344 0-12.492188-10.164063-22.652344-22.652344-22.652344-12.492188 0-22.652344 10.160156-22.652344 22.652344 0 12.488281 10.160156 22.652344 22.652344 22.652344zm0-30.304688c4.21875 0 7.652344 3.429688 7.652344 7.652344 0 4.21875-3.433594 7.652344-7.652344 7.652344s-7.652344-3.433594-7.652344-7.652344c0-4.222656 3.433594-7.652344 7.652344-7.652344zm0 0"/><path d="m385.292969 82.683594c12.492187 0 22.652343-10.160156 22.652343-22.652344s-10.160156-22.652344-22.652343-22.652344c-12.488281 0-22.652344 10.160156-22.652344 22.652344s10.164063 22.652344 22.652344 22.652344zm0-30.304688c4.222656 0 7.652343 3.433594 7.652343 7.652344s-3.429687 7.652344-7.652343 7.652344c-4.21875 0-7.652344-3.433594-7.652344-7.652344s3.433594-7.652344 7.652344-7.652344zm0 0"/></svg>